<svg width="367" height="80" viewBox="0 0 367 80" fill="none" xmlns="http://www.w3.org/2000/svg">
<path d="M49.208 11.32V56.152C49.208 63.768 47.128 69.592 42.968 73.624C38.872 77.656 33.208 79.672 25.976 79.672C18.296 79.672 12.152 77.528 7.544 73.24C3 68.952 0.728 62.776 0.728 54.712H19.352C19.416 60.024 21.368 62.68 25.208 62.68C28.664 62.68 30.392 60.504 30.392 56.152V11.32H49.208ZM57.3665 52.024C57.3665 46.456 58.3585 41.592 60.3425 37.432C62.3905 33.272 65.1425 30.072 68.5985 27.832C72.1185 25.592 76.0225 24.472 80.3105 24.472C84.0225 24.472 87.2225 25.208 89.9105 26.68C92.5985 28.152 94.6785 30.136 96.1505 32.632V25.144H114.967V79H96.1505V71.512C94.6785 74.008 92.5665 75.992 89.8145 77.464C87.1265 78.936 83.9585 79.672 80.3105 79.672C76.0225 79.672 72.1185 78.552 68.5985 76.312C65.1425 74.072 62.3905 70.872 60.3425 66.712C58.3585 62.488 57.3665 57.592 57.3665 52.024ZM96.1505 52.024C96.1505 48.568 95.1905 45.848 93.2705 43.864C91.4145 41.88 89.1105 40.888 86.3585 40.888C83.5425 40.888 81.2065 41.88 79.3505 43.864C77.4945 45.784 76.5665 48.504 76.5665 52.024C76.5665 55.48 77.4945 58.232 79.3505 60.28C81.2065 62.264 83.5425 63.256 86.3585 63.256C89.1105 63.256 91.4145 62.264 93.2705 60.28C95.1905 58.296 96.1505 55.544 96.1505 52.024ZM160.921 24.664C167.129 24.664 172.057 26.744 175.705 30.904C179.353 35 181.177 40.568 181.177 47.608V79H162.361V50.104C162.361 47.032 161.561 44.632 159.961 42.904C158.361 41.112 156.217 40.216 153.529 40.216C150.713 40.216 148.505 41.112 146.905 42.904C145.305 44.632 144.505 47.032 144.505 50.104V79H125.689V25.144H144.505V32.824C146.169 30.392 148.409 28.44 151.225 26.968C154.041 25.432 157.273 24.664 160.921 24.664ZM201.005 20.152C197.677 20.152 194.989 19.256 192.941 17.464C190.957 15.608 189.965 13.304 189.965 10.552C189.965 7.736 190.957 5.4 192.941 3.544C194.989 1.688 197.677 0.759995 201.005 0.759995C204.269 0.759995 206.893 1.688 208.877 3.544C210.925 5.4 211.949 7.736 211.949 10.552C211.949 13.304 210.925 15.608 208.877 17.464C206.893 19.256 204.269 20.152 201.005 20.152ZM210.317 25.144V79H191.501V25.144H210.317ZM256.264 24.664C262.472 24.664 267.4 26.744 271.048 30.904C274.696 35 276.52 40.568 276.52 47.608V79H257.704V50.104C257.704 47.032 256.904 44.632 255.304 42.904C253.704 41.112 251.56 40.216 248.872 40.216C246.056 40.216 243.848 41.112 242.248 42.904C240.648 44.632 239.848 47.032 239.848 50.104V79H221.032V25.144H239.848V32.824C241.512 30.392 243.752 28.44 246.568 26.968C249.384 25.432 252.616 24.664 256.264 24.664ZM338.301 51.448C338.301 52.92 338.205 54.392 338.013 55.864H302.397C302.589 58.808 303.389 61.016 304.797 62.488C306.269 63.896 308.125 64.6 310.365 64.6C313.501 64.6 315.741 63.192 317.085 60.376H337.149C336.317 64.088 334.685 67.416 332.253 70.36C329.885 73.24 326.877 75.512 323.229 77.176C319.581 78.84 315.549 79.672 311.133 79.672C305.821 79.672 301.085 78.552 296.925 76.312C292.829 74.072 289.597 70.872 287.229 66.712C284.925 62.552 283.773 57.656 283.773 52.024C283.773 46.392 284.925 41.528 287.229 37.432C289.533 33.272 292.733 30.072 296.829 27.832C300.989 25.592 305.757 24.472 311.133 24.472C316.445 24.472 321.149 25.56 325.245 27.736C329.341 29.912 332.541 33.048 334.845 37.144C337.149 41.176 338.301 45.944 338.301 51.448ZM319.101 46.744C319.101 44.44 318.333 42.648 316.797 41.368C315.261 40.024 313.341 39.352 311.037 39.352C308.733 39.352 306.845 39.992 305.373 41.272C303.901 42.488 302.941 44.312 302.493 46.744H319.101ZM355.121 79.768C351.793 79.768 349.105 78.872 347.057 77.08C345.073 75.224 344.081 72.888 344.081 70.072C344.081 67.256 345.073 64.92 347.057 63.064C349.105 61.208 351.793 60.28 355.121 60.28C358.385 60.28 361.009 61.208 362.993 63.064C365.041 64.92 366.065 67.256 366.065 70.072C366.065 72.824 365.041 75.128 362.993 76.984C361.009 78.84 358.385 79.768 355.121 79.768Z" fill="white"/>
</svg>
